<svg xmlns="http://www.w3.org/2000/svg" viewBox="0 0 400 380">
  <!-- 北海道 -->
	<path id="81" d="M 295 10 L 385 10 S 390 10 390 15 L 390 75 S 390 80 385 80 L 325 80 S 320 80 320 85 L 320 85 S 320 90 315 90 L 295 90 S 290 90 290 85 L 290 15 S 290 10 295 10 L 295 10"
  fill="transparent"
  stroke="#00a"
  stroke-width="4" />

  <!-- 東北 -->
  <path id="82" d="M 305 100 L 335 100 S 340 100 340 95 L 340 95 S 340 90 345 90 L 355 90 S 360 90 360 95 L 360 190 L 310 190 L 310 150 L 300 150 L 300 105 S 300 100 305 100"
  fill="transparent"
  stroke="#00a"
  stroke-width="4" />
  <!-- 境界線（横） -->
  <line x1="300" y1="110" x2="360" y2="110" stroke="#00a" stroke-width="1" stroke-dasharray="3 3"/>
  <line x1="300" y1="140" x2="360" y2="140" stroke="#00a" stroke-width="1" stroke-dasharray="3 3"/>
  <line x1="310" y1="170" x2="360" y2="170" stroke="#00a" stroke-width="1" stroke-dasharray="3 3"/>
  <!-- 境界線（縦） -->
  <line x1="330" y1="110" x2="330" y2="170" stroke="#00a" stroke-width="1" stroke-dasharray="3 3" stroke-dashoffset="1" />

  <!-- 関東 -->
	<path id="83" d="M 360 190 L 360 275 S 360 280 355 280 L 345 280 S 340 280 340 275 L 340 255 S 340 250 335 250 L 325 250 S 320 250 320 255 L 320 265 S 320 270 315 270 L 315 270 S 310 270 310 265 L 310 265 S 310 260 305 260 L 290 260  L 290 250 L 270 250 L 270 220 L 290 220 L 290 190 L 360 190"
  fill="transparent"
  stroke="#00a"
  stroke-width="4" />
  <!-- 境界線（横） -->
  <line x1="290" y1="220" x2="360" y2="220" stroke="#00a" stroke-width="1" stroke-dasharray="3 3"/>
  <line x1="290" y1="240" x2="340" y2="240" stroke="#00a" stroke-width="1" stroke-dasharray="3 3"/>
  <line x1="290" y1="250" x2="340" y2="250" stroke="#00a" stroke-width="1" stroke-dasharray="3 3"/>
  <!-- 境界線（縦） -->
  <line x1="290" y1="220" x2="290" y2="250" stroke="#00a" stroke-width="1" stroke-dasharray="3 3" stroke-dashoffset="1" />
  <line x1="310" y1="190" x2="310" y2="220" stroke="#00a" stroke-width="1" stroke-dasharray="3 3" stroke-dashoffset="1" />
  <line x1="330" y1="190" x2="330" y2="220" stroke="#00a" stroke-width="1" stroke-dasharray="3 3" stroke-dashoffset="1" />
  <line x1="340" y1="220" x2="340" y2="250" stroke="#00a" stroke-width="1" stroke-dasharray="3 3" stroke-dashoffset="1" />

  <!-- 北陸 -->
  <path id="84" d="M 300 150 L 310 150 L 310 190 L 290 190 L 290 220 L 270 220 L 270 250 L 250 250 L 250 190 L 200 190 L 200 165 S 200 160 205 160 L 215 160 S 220 160 220 165 L 220 165 S 220 170 225 170 L 300 170 L 300 150"
  fill="transparent"
  stroke="#00a"
  stroke-width="4" />
  <!-- 境界線（横） -->
  <line x1="250" y1="190" x2="290" y2="190" stroke="#00a" stroke-width="1" stroke-dasharray="3 3"/>
  <!-- 境界線（縦） -->
  <line x1="220" y1="170" x2="220" y2="190" stroke="#00a" stroke-width="1" stroke-dasharray="3 3" stroke-dashoffset="1" />
  <line x1="250" y1="170" x2="250" y2="190" stroke="#00a" stroke-width="1" stroke-dasharray="3 3" stroke-dashoffset="1" />

  <!-- 中部 -->
	<path id="85" d="M 220 190 L 250 190 L 250 250 L 290 250 L 290 265 S 290 270 285 270 L 275 270 S 270 270 270 265 L 270 265 S 270 260 265 260 L 235 260 S 230 260 230 265 L 230 275 S 230 280 225 280 L 220 280 L 220 190"
  fill="transparent"
  stroke="#00a"
  stroke-width="4" />
  <!-- 境界線（横） -->
  <line x1="220" y1="240" x2="250" y2="240" stroke="#00a" stroke-width="1" stroke-dasharray="3 3"/>
  <!-- 境界線（縦） -->
  <line x1="230" y1="240" x2="230" y2="260" stroke="#00a" stroke-width="1" stroke-dasharray="3 3" stroke-dashoffset="1" />
  <line x1="250" y1="250" x2="250" y2="260" stroke="#00a" stroke-width="1" stroke-dasharray="3 3" stroke-dashoffset="1" />

  <!-- 近畿 -->
	<path id="86" d="M 175 190 L 220 190 L 220 280 L 195 280 S 190 280 190 275 L 190 255 S 190 250 185 250 L 170 250 L 170 195 S 170 190 175 190 L 175 190"
  fill="transparent"
  stroke="#00a"
  stroke-width="4" />
  <!-- 境界線（横） -->
  <line x1="200" y1="210" x2="220" y2="210" stroke="#00a" stroke-width="1" stroke-dasharray="3 3"/>
  <line x1="200" y1="230" x2="220" y2="230" stroke="#00a" stroke-width="1" stroke-dasharray="3 3"/>
  <line x1="190" y1="240" x2="220" y2="240" stroke="#00a" stroke-width="1" stroke-dasharray="3 3"/>
  <line x1="190" y1="260" x2="200" y2="260" stroke="#00a" stroke-width="1" stroke-dasharray="3 3"/>
  <line x1="200" y1="270" x2="220" y2="270" stroke="#00a" stroke-width="1" stroke-dasharray="3 3"/>
  <!-- 境界線（縦） -->
  <line x1="190" y1="190" x2="190" y2="250" stroke="#00a" stroke-width="1" stroke-dasharray="3 3" stroke-dashoffset="1" />
  <line x1="200" y1="190" x2="200" y2="230" stroke="#00a" stroke-width="1" stroke-dasharray="3 3" stroke-dashoffset="1" />
  <line x1="200" y1="240" x2="200" y2="270" stroke="#00a" stroke-width="1" stroke-dasharray="3 3" stroke-dashoffset="1" />

  <!-- 中国 -->
	<path id="87" d="M 115 200 L 170 200 L 170 250 L 115 250 S 110 250 110 245 L 110 205 S 110 200 115 200 L 115 200"
  fill="transparent"
  stroke="#00a"
  stroke-width="4" />
  <!-- 境界線（横） -->
  <line x1="120" y1="220" x2="170" y2="220" stroke="#00a" stroke-width="1" stroke-dasharray="3 3"/>
  <!-- 境界線（縦） -->
  <line x1="120" y1="200" x2="120" y2="250" stroke="#00a" stroke-width="1" stroke-dasharray="3 3" stroke-dashoffset="1" />
  <line x1="150" y1="200" x2="150" y2="250" stroke="#00a" stroke-width="1" stroke-dasharray="3 3" stroke-dashoffset="1" />

  <!-- 四国 -->
  <path id="88" d="M 115 270 L 175 270 S 180 270 180 275 L 180 295 S 180 300 175 300 L 115 300 S 110 300 110 295 L 110 275 S 110 270 115 270"
  fill="transparent"
  stroke="#00a"
  stroke-width="4" />
  <!-- 境界線（横） -->
  <line x1="110" y1="280" x2="180" y2="280" stroke="#00a" stroke-width="1" stroke-dasharray="3 3"/>
  <!-- 境界線（縦） -->
  <line x1="150" y1="270" x2="150" y2="300" stroke="#00a" stroke-width="1" stroke-dasharray="3 3" stroke-dashoffset="1" />

  <!-- 九州 -->
	<path id="89" d="M 35 210 L 55 210 S 60 210 60 205 L 60 205 S 60 200 65 200 L 95 200 S 100 200 100 205 L 100 305 S 100 310 95 310 L 65 310 S 60 310 60 305 L 60 245 S 60 240 55 240 L 45 240 S 40 240 40 245 L 40 255 S 40 260 35 260 L 35 260 S 30 260  30 255 L 30 215 S 30 210 35 210 L 35 210"
  fill="transparent"
  stroke="#00a"
  stroke-width="4" />
  <!-- 境界線（横） -->
  <line x1="80" y1="220" x2="100" y2="220" stroke="#00a" stroke-width="1" stroke-dasharray="3 3"/>
  <line x1="60" y1="250" x2="80" y2="250" stroke="#00a" stroke-width="1" stroke-dasharray="3 3"/>
  <line x1="80" y1="260" x2="100" y2="260" stroke="#00a" stroke-width="1" stroke-dasharray="3 3"/>
  <line x1="60" y1="290" x2="100" y2="290" stroke="#00a" stroke-width="1" stroke-dasharray="3 3"/>
  <!-- 境界線（縦） -->
  <line x1="40" y1="210" x2="40" y2="240" stroke="#00a" stroke-width="1" stroke-dasharray="3 3" stroke-dashoffset="1" />
  <line x1="60" y1="210" x2="60" y2="240" stroke="#00a" stroke-width="1" stroke-dasharray="3 3" stroke-dashoffset="1" />
  <line x1="80" y1="220" x2="80" y2="290" stroke="#00a" stroke-width="1" stroke-dasharray="3 3" stroke-dashoffset="1" />

  <!-- 沖縄 -->
	<path id="90" d="M 15 340 L 25 340 S 30 340 30 345 L 30 365 S 30 370 25 370 L 15 370 S 10 370 10 365 L 10 345 S 10 340 15 340 L 15 340"
  fill="transparent"
  stroke="#00a"
  stroke-width="4" />
</svg>
